<svg width="23.999999999999996" height="23.999999999999996" xmlns="http://www.w3.org/2000/svg" fill="none">

 <g>
  <title>Layer 1</title>
  <g stroke-width="0" id="SVGRepo_bgCarrier"/>
  <g stroke-linejoin="round" stroke-linecap="round" id="SVGRepo_tracerCarrier"/>
  <g id="SVGRepo_iconCarrier">
   <path id="svg_1" stroke-linejoin="round" stroke-width="2" stroke="#606468" d="m17.14398,6.47532c0.5781,0.57806 0.8671,0.86709 1.0194,1.23463c0.1522,0.36754 0.1522,0.77629 0.1522,1.59379l0,7.34315c0,1.8856 0,2.8284 -0.5858,3.4142c-0.5858,0.5858 -1.5286,0.5858 -3.4142,0.5858l-6,0c-1.88562,0 -2.82843,0 -3.41421,-0.5858c-0.58579,-0.5858 -0.58579,-1.5286 -0.58579,-3.4142l0,-10c0,-1.88562 0,-2.82843 0.58579,-3.41421c0.58578,-0.58579 1.52859,-0.58579 3.41421,-0.58579l3.3431,0c0.8175,0 1.2263,0 1.5938,0.15224c0.3676,0.15224 0.6566,0.44127 1.2347,1.01933l2.6568,2.65686z"/>
  </g>
  <rect id="svg_2" height="1.26104" width="1.49962" y="6.18357" x="7.09216" fill="#606468"/>
  <path id="svg_3" d="m8.58905,7.37918l1.49962,0l0,1.26104l-1.49962,0l0,-1.26104z" opacity="undefined" fill="#606468"/>
  <rect id="svg_4" height="1.26104" width="1.49962" y="8.63477" x="7.09216" fill="#606468"/>
  <rect id="svg_5" height="1.26104" width="1.49962" y="9.83855" x="8.5836" fill="#606468"/>
  <rect id="svg_6" height="1.26104" width="1.49962" y="11.07096" x="7.09488" fill="#606468"/>
  <rect id="svg_7" height="1.26104" width="1.49962" y="12.27201" x="8.5945" fill="#606468"/>
  <rect id="svg_8" height="1.26104" width="1.49962" y="13.5017" x="7.1234" fill="#606468"/>
 </g>
</svg>