<svg width="800" height="800" xmlns="http://www.w3.org/2000/svg">

 <g>
  <title>Layer 1</title>
  <svg id="svg_6" y="0" xmlns="http://www.w3.org/2000/svg" fill="none" viewBox="0 0 24 24" height="800" width="800">
   <g stroke-width="0" id="svg_3"/>
   <g stroke-linejoin="round" stroke-linecap="round" id="svg_2"/>
   <g id="svg_1">
    <path id="svg_7" stroke-linejoin="round" stroke-width="2" stroke="#606468" d="m17.8284,6.82843c0.5781,0.57806 0.8671,0.86709 1.0194,1.23463c0.1522,0.36754 0.1522,0.77629 0.1522,1.59379l0,7.34315c0,1.8856 0,2.8284 -0.5858,3.4142c-0.5858,0.5858 -1.5286,0.5858 -3.4142,0.5858l-6,0c-1.88562,0 -2.82843,0 -3.41421,-0.5858c-0.58579,-0.5858 -0.58579,-1.5286 -0.58579,-3.4142l0,-10c0,-1.88562 0,-2.82843 0.58579,-3.41421c0.58578,-0.58579 1.52859,-0.58579 3.41421,-0.58579l3.3431,0c0.8175,0 1.2263,0 1.5938,0.15224c0.3676,0.15224 0.6566,0.44127 1.2347,1.01933l2.6568,2.65686z"/>
   </g>
  </svg>
  <g transform="matrix(0.189779, 0, 0, 0.186597, 81.4482, 630.94)" id="svg_5">
   <svg fill="#606468" x="867.73892" id="svg_8" y="-2014.34571" viewBox="0 0 2400 2400" height="2400" width="2400" xmlns="http://www.w3.org/2000/svg">
    <path fill="#606468" id="svg_9" d="m1061.513,716.58s-22.643,-211.096 -232.093,-216.96c-209.452,-5.86 -317.02,158.325 -317.02,392.875s118.88,422.2 322.674,422.2c203.797,0 226.439,-234.55 226.439,-234.55l390.603,23.452s22.999,211.838 -140.455,373.458c-163.457,161.608 -364.087,188.012 -504.196,186.914c-140.11,-1.118 -334.37,2.195 -522.228,-190.21c-187.858,-192.409 -219.737,-379.322 -219.737,-562.932c0,-183.617 35.625,-426.856 258.991,-611.309c151.805,-125.337 305.692,-171.518 459.605,-171.518c642.535,0 685.69,592.617 685.69,592.617l-408.273,-4.036l0,-0.001z"/>
   </svg>
  </g>
 </g>
</svg>