<svg width="800" height="800" xmlns="http://www.w3.org/2000/svg">
 <g id="svg_14">
  <svg id="svg_28" y="0" xmlns="http://www.w3.org/2000/svg" height="800" width="800">
   <g id="svg_29">
    <title>Layer 1</title>
    <g id="svg_20">
     <svg width="800" height="800" viewBox="0 0 24 24" fill="none" xmlns="http://www.w3.org/2000/svg" y="0" id="svg_15">
      <g id="svg_19" stroke-width="0"/>
      <g id="svg_18" stroke-linecap="round" stroke-linejoin="round"/>
      <g id="svg_16">
       <path d="m17.8284,6.82843c0.5781,0.57806 0.8671,0.86709 1.0194,1.23463c0.1522,0.36754 0.1522,0.77629 0.1522,1.59379l0,7.34315c0,1.8856 0,2.8284 -0.5858,3.4142c-0.5858,0.5858 -1.5286,0.5858 -3.4142,0.5858l-6,0c-1.88562,0 -2.82843,0 -3.41421,-0.5858c-0.58579,-0.5858 -0.58579,-1.5286 -0.58579,-3.4142l0,-10c0,-1.88562 0,-2.82843 0.58579,-3.41421c0.58578,-0.58579 1.52859,-0.58579 3.41421,-0.58579l3.3431,0c0.8175,0 1.2263,0 1.5938,0.15224c0.3676,0.15224 0.6566,0.44127 1.2347,1.01933l2.6568,2.65686z" stroke="#606468" stroke-width="2" stroke-linejoin="round" id="svg_17"/>
      </g>
     </svg>
    </g>
    <g id="svg_4" transform="matrix(0.189779, 0, 0, 0.186597, 81.4482, 630.94)">
     <svg xmlns="http://www.w3.org/2000/svg" width="2400" height="2400" viewBox="0 0 2400 2400" y="-2014.34571" id="svg_21" x="867.73892" fill="#606468">
      <path d="m1061.513,716.58s-22.643,-211.096 -232.093,-216.96c-209.452,-5.86 -317.02,158.325 -317.02,392.875s118.88,422.2 322.674,422.2c203.797,0 226.439,-234.55 226.439,-234.55l390.603,23.452s22.999,211.838 -140.455,373.458c-163.457,161.608 -364.087,188.012 -504.196,186.914c-140.11,-1.118 -334.37,2.195 -522.228,-190.21c-187.858,-192.409 -219.737,-379.322 -219.737,-562.932c0,-183.617 35.625,-426.856 258.991,-611.309c151.805,-125.337 305.692,-171.518 459.605,-171.518c642.535,0 685.69,592.617 685.69,592.617l-408.273,-4.036l0,-0.001z" id="svg_22" fill="#606468"/>
     </svg>
    </g>
   </g>
  </svg>
 </g>

 <g>
  <title>Layer 2</title>
  <g transform="matrix(0.0620107, 0, 0, 0.0658009, 274.408, 170.336)" id="svg_34">
   <svg x="2996.19295" y="3417.15628" stroke="#606468" xml:space="preserve" viewBox="0 0 45.402 45.402" height="800" width="800" xmlns:xlink="http://www.w3.org/1999/xlink" xmlns="http://www.w3.org/2000/svg" id="svg_23" version="1.1" fill="#606468">
    <g stroke-width="0" id="svg_26"/>
    <g stroke-linejoin="round" stroke-linecap="round" id="svg_25"/>
    <g id="svg_24">
     <g id="svg_30">
      <path id="svg_31" d="m41.267,18.557l-14.435,0l0,-14.423c0,-2.283 -1.842,-4.134 -4.125,-4.134c-2.283,0 -4.124,1.851 -4.124,4.135l0,14.432l-14.442,0c-2.283,0 -4.139,1.851 -4.138,4.135c-0.001,1.141 0.46,2.187 1.207,2.934c0.748,0.749 1.78,1.222 2.92,1.222l14.453,0l0,14.412c0,1.142 0.453,2.176 1.201,2.922c0.748,0.748 1.777,1.211 2.919,1.211c2.282,0 4.129,-1.851 4.129,-4.133l0,-14.413l14.435,0c2.283,0 4.134,-1.867 4.133,-4.15c-0.001,-2.282 -1.852,-4.15 -4.133,-4.15z"/>
     </g>
    </g>
   </svg>
  </g>
  <g transform="matrix(0.0620107, 0, 0, 0.0658009, 274.408, 170.336)" id="svg_41">
   <svg x="3931.5151" y="3417.15628" stroke="#606468" xml:space="preserve" viewBox="0 0 45.402 45.402" height="800" width="800" xmlns:xlink="http://www.w3.org/1999/xlink" xmlns="http://www.w3.org/2000/svg" id="svg_40" version="1.1" fill="#606468">
    <g stroke-width="0" id="svg_35"/>
    <g stroke-linejoin="round" stroke-linecap="round" id="svg_36"/>
    <g id="svg_39">
     <g id="svg_38">
      <path id="svg_37" d="m41.267,18.557l-14.435,0l0,-14.423c0,-2.283 -1.842,-4.134 -4.125,-4.134c-2.283,0 -4.124,1.851 -4.124,4.135l0,14.432l-14.442,0c-2.283,0 -4.139,1.851 -4.138,4.135c-0.001,1.141 0.46,2.187 1.207,2.934c0.748,0.749 1.78,1.222 2.92,1.222l14.453,0l0,14.412c0,1.142 0.453,2.176 1.201,2.922c0.748,0.748 1.777,1.211 2.919,1.211c2.282,0 4.129,-1.851 4.129,-4.133l0,-14.413l14.435,0c2.283,0 4.134,-1.867 4.133,-4.15c-0.001,-2.282 -1.852,-4.15 -4.133,-4.15z"/>
     </g>
    </g>
   </svg>
  </g>
 </g>
</svg>