<svg width="799.9999999999999" height="799.9999999999999" xmlns="http://www.w3.org/2000/svg">
 <g id="svg_14">
  <svg id="svg_28" y="0" xmlns="http://www.w3.org/2000/svg" height="800" width="800">
   <g id="svg_29">
    <title>Layer 1</title>
    <g id="svg_20">
     <svg width="800" height="800" viewBox="0 0 24 24" fill="none" xmlns="http://www.w3.org/2000/svg" y="0" id="svg_15">
      <g id="svg_19" stroke-width="0"/>
      <g id="svg_18" stroke-linecap="round" stroke-linejoin="round"/>
      <g id="svg_16">
       <path d="m17.8284,6.82843c0.5781,0.57806 0.8671,0.86709 1.0194,1.23463c0.1522,0.36754 0.1522,0.77629 0.1522,1.59379l0,7.34315c0,1.8856 0,2.8284 -0.5858,3.4142c-0.5858,0.5858 -1.5286,0.5858 -3.4142,0.5858l-6,0c-1.88562,0 -2.82843,0 -3.41421,-0.5858c-0.58579,-0.5858 -0.58579,-1.5286 -0.58579,-3.4142l0,-10c0,-1.88562 0,-2.82843 0.58579,-3.41421c0.58578,-0.58579 1.52859,-0.58579 3.41421,-0.58579l3.3431,0c0.8175,0 1.2263,0 1.5938,0.15224c0.3676,0.15224 0.6566,0.44127 1.2347,1.01933l2.6568,2.65686z" stroke="#606468" stroke-width="2" stroke-linejoin="round" id="svg_17"/>
      </g>
     </svg>
    </g>
    <g id="svg_4" transform="matrix(0.189779, 0, 0, 0.186597, 81.4482, 630.94)">
     <svg xmlns="http://www.w3.org/2000/svg" width="2400" height="2400" viewBox="0 0 2400 2400" y="-2014.34571" id="svg_21" x="867.73892" fill="#606468">
      <path d="m1061.513,716.58s-22.643,-211.096 -232.093,-216.96c-209.452,-5.86 -317.02,158.325 -317.02,392.875s118.88,422.2 322.674,422.2c203.797,0 226.439,-234.55 226.439,-234.55l390.603,23.452s22.999,211.838 -140.455,373.458c-163.457,161.608 -364.087,188.012 -504.196,186.914c-140.11,-1.118 -334.37,2.195 -522.228,-190.21c-187.858,-192.409 -219.737,-379.322 -219.737,-562.932c0,-183.617 35.625,-426.856 258.991,-611.309c151.805,-125.337 305.692,-171.518 459.605,-171.518c642.535,0 685.69,592.617 685.69,592.617l-408.273,-4.036l0,-0.001z" id="svg_22" fill="#606468"/>
     </svg>
    </g>
   </g>
  </svg>
 </g>

 <g>
  <title>Layer 2</title>
  <g transform="matrix(0.0898994, 0, 0, 0.081089, 248.993, 364.252)" id="svg_27">
   <svg x="2725.82075" y="326.04239" stroke="#606468" fill="#606468" xml:space="preserve" viewBox="0 0 512 512" xmlns:xlink="http://www.w3.org/1999/xlink" xmlns="http://www.w3.org/2000/svg" id="svg_23" version="1.1" width="800" height="800">
    <g stroke-width="0" id="svg_26"/>
    <g stroke-linejoin="round" stroke-linecap="round" id="svg_25"/>
    <g id="svg_24">
     <g id="svg_30">
      <path id="svg_31" fill="#606468" d="m418.562,173.34c5.999,-1.291 10.281,-6.582 10.281,-12.724l0,-56.756c0,-3.927 -1.775,-7.649 -4.834,-10.124c-3.058,-2.466 -7.07,-3.425 -10.912,-2.6l-51.621,11.093l0,-71.345c0,-3.856 -1.713,-7.515 -4.672,-9.99c-2.964,-2.475 -6.869,-3.507 -10.662,-2.816l-38.686,7.013c-6.192,1.121 -10.694,6.51 -10.694,12.805l0,78.242l-80.658,17.333l0,-69.354c0,-3.856 -1.713,-7.514 -4.672,-9.99c-2.958,-2.475 -6.864,-3.506 -10.662,-2.816l-38.69,7.004c-6.192,1.12 -10.693,6.511 -10.693,12.806l0,76.25l-57.948,12.456c-5.999,1.282 -10.281,6.59 -10.281,12.724l0,56.756c0,3.927 1.776,7.649 4.834,10.124c3.062,2.466 7.07,3.426 10.917,2.601l52.478,-11.281l0,108.39l-57.948,12.456c-5.999,1.282 -10.281,6.582 -10.281,12.715l0,56.737c0,3.928 1.776,7.649 4.834,10.125c3.062,2.466 7.07,3.425 10.917,2.6l52.478,-11.281l0,76.492c0,3.856 1.712,7.515 4.672,9.99c2.959,2.476 6.864,3.507 10.662,2.816l38.686,-6.995c6.192,-1.12 10.698,-6.51 10.698,-12.805l0,-83.397l80.658,-17.334l0,74.502c0,3.865 1.712,7.524 4.672,9.99c2.96,2.475 6.865,3.506 10.662,2.815l38.686,-7.004c6.192,-1.121 10.694,-6.51 10.694,-12.805l0,-81.408l57.087,-12.267c5.999,-1.291 10.281,-6.582 10.281,-12.724l0,-56.729c0,-3.927 -1.775,-7.649 -4.834,-10.124c-3.058,-2.466 -7.07,-3.426 -10.912,-2.6l-51.621,11.093l0,-108.39l57.084,-12.269zm-121.801,134.566l-80.658,17.326l0,-108.382l80.658,-17.334l0,108.39z" class="st0"/>
      <path id="svg_32" fill="#606468" d="m364.421,0.036c0.022,0 0.04,0 0.062,-0.009l0.167,-0.027l-0.229,0.036z" class="st0"/>
     </g>
    </g>
   </svg>
  </g>
 </g>
</svg>