<svg width="800" height="800" xmlns="http://www.w3.org/2000/svg">

 <g>
  <title>Layer 1</title>
  <g id="svg_4">
   <svg id="svg_9" y="0" xmlns="http://www.w3.org/2000/svg" fill="none" viewBox="0 0 24 24" height="800" width="800">
    <g stroke-width="0" id="svg_3"/>
    <g stroke-linejoin="round" stroke-linecap="round" id="svg_2"/>
    <g id="svg_1">
     <path id="svg_10" stroke-linejoin="round" stroke-width="2" stroke="#606468" d="m17.8284,6.82843c0.5781,0.57806 0.8671,0.86709 1.0194,1.23463c0.1522,0.36754 0.1522,0.77629 0.1522,1.59379l0,7.34315c0,1.8856 0,2.8284 -0.5858,3.4142c-0.5858,0.5858 -1.5286,0.5858 -3.4142,0.5858l-6,0c-1.88562,0 -2.82843,0 -3.41421,-0.5858c-0.58579,-0.5858 -0.58579,-1.5286 -0.58579,-3.4142l0,-10c0,-1.88562 0,-2.82843 0.58579,-3.41421c0.58578,-0.58579 1.52859,-0.58579 3.41421,-0.58579l3.3431,0c0.8175,0 1.2263,0 1.5938,0.15224c0.3676,0.15224 0.6566,0.44127 1.2347,1.01933l2.6568,2.65686z"/>
    </g>
   </svg>
  </g>
  <g transform="matrix(0.492644, 0, 0, 0.48694, 65.0561, 417.724)" id="svg_8">
   <svg x="290.04122" id="svg_11" y="-354.2577" xmlns="http://www.w3.org/2000/svg" fill="none" viewBox="0 0 24 24" height="800" width="800">
    <g stroke-width="0" id="svg_7"/>
    <g stroke-linejoin="round" stroke-linecap="round" id="svg_6"/>
    <g id="svg_5">
     <path id="svg_12" stroke-linejoin="round" stroke-linecap="round" stroke-width="2" stroke="#606468" d="m3,15l18,0m-18,4l10,0m8,-12l-8,0m8,4l-8,0m-8.4,0l2.8,0c0.56005,0 0.84008,0 1.05399,-0.109c0.18816,-0.0959 0.34114,-0.2488 0.43702,-0.437c0.10899,-0.2139 0.10899,-0.49395 0.10899,-1.054l0,-2.8c0,-0.56005 0,-0.84008 -0.10899,-1.05399c-0.09588,-0.18816 -0.24886,-0.34114 -0.43702,-0.43702c-0.21391,-0.10899 -0.49394,-0.10899 -1.05399,-0.10899l-2.8,0c-0.56005,0 -0.84008,0 -1.05399,0.10899c-0.18816,0.09588 -0.34114,0.24886 -0.43702,0.43702c-0.10899,0.21391 -0.10899,0.49394 -0.10899,1.05399l0,2.8c0,0.56005 0,0.8401 0.10899,1.054c0.09588,0.1882 0.24886,0.3411 0.43702,0.437c0.21391,0.109 0.49394,0.109 1.05399,0.109z"/>
    </g>
   </svg>
  </g>
 </g>
</svg>