<svg width="800" height="800" xmlns="http://www.w3.org/2000/svg">

 <g>
  <title>Layer 1</title>
  <g id="svg_4">
   <svg id="svg_9" y="0" xmlns="http://www.w3.org/2000/svg" fill="none" viewBox="0 0 24 24" height="800" width="800">
    <g stroke-width="0" id="svg_3"/>
    <g stroke-linejoin="round" stroke-linecap="round" id="svg_2"/>
    <g id="svg_1">
     <path id="svg_10" stroke-linejoin="round" stroke-width="2" stroke="#606468" d="m17.8284,6.82843c0.5781,0.57806 0.8671,0.86709 1.0194,1.23463c0.1522,0.36754 0.1522,0.77629 0.1522,1.59379l0,7.34315c0,1.8856 0,2.8284 -0.5858,3.4142c-0.5858,0.5858 -1.5286,0.5858 -3.4142,0.5858l-6,0c-1.88562,0 -2.82843,0 -3.41421,-0.5858c-0.58579,-0.5858 -0.58579,-1.5286 -0.58579,-3.4142l0,-10c0,-1.88562 0,-2.82843 0.58579,-3.41421c0.58578,-0.58579 1.52859,-0.58579 3.41421,-0.58579l3.3431,0c0.8175,0 1.2263,0 1.5938,0.15224c0.3676,0.15224 0.6566,0.44127 1.2347,1.01933l2.6568,2.65686z"/>
    </g>
   </svg>
  </g>
  <g transform="matrix(0.496971, 0, 0, 0.503699, 55.3842, 404.696)" id="svg_8">
   <svg x="289.4865" id="svg_11" y="-358.71442" xmlns="http://www.w3.org/2000/svg" fill="none" viewBox="0 0 24 24" height="800" width="800">
    <g stroke-width="0" id="svg_7"/>
    <g stroke-linejoin="round" stroke-linecap="round" id="svg_6"/>
    <g id="svg_5">
     <path id="svg_12" stroke-linejoin="round" stroke-linecap="round" stroke-width="2" stroke="#606468" d="m15,12c0,1.6569 -1.3431,3 -3,3c-1.6569,0 -3,-1.3431 -3,-3c0,-1.6569 1.3431,-3 3,-3c1.6569,0 3,1.3431 3,3z"/>
     <path id="svg_13" stroke-linejoin="round" stroke-linecap="round" stroke-width="2" stroke="#606468" d="m12.9046,3.06005c-0.2058,-0.06005 -0.4387,-0.06005 -0.9046,-0.06005c-0.4659,0 -0.6988,0 -0.9046,0.06005c-0.3012,0.08789 -0.5673,0.26803 -0.7608,0.51506c-0.1322,0.16877 -0.2187,0.38505 -0.39169,0.81761c-0.24872,0.6218 -0.93898,0.94199 -1.57434,0.73028l-0.57078,-0.19019c-0.40489,-0.13496 -0.60734,-0.20245 -0.80583,-0.21401c-0.29157,-0.01699 -0.58176,0.05152 -0.83495,0.1971c-0.17236,0.09911 -0.32325,0.25001 -0.62504,0.5518c-0.32075,0.32075 -0.48113,0.48112 -0.58301,0.66419c-0.14969,0.26895 -0.21301,0.57745 -0.18137,0.88362c0.02153,0.20839 0.10576,0.41898 0.27423,0.84015c0.26383,0.65957 0.01002,1.41312 -0.5991,1.77867l-0.27751,0.16654c-0.4249,0.25493 -0.63735,0.38243 -0.79167,0.55793c-0.13656,0.1553 -0.23953,0.3372 -0.30245,0.5342c-0.07109,0.2226 -0.07109,0.4728 -0.07109,0.9733c0,0.5926 0,0.8888 0.09462,1.1425c0.08361,0.2241 0.2196,0.4249 0.39662,0.5858c0.20034,0.182 0.47271,0.291 1.01742,0.5089c0.55668,0.2226 0.8433,0.8406 0.6537,1.4094l-0.21515,0.6455c-0.14902,0.447 -0.22354,0.6706 -0.23031,0.8902c-0.00815,0.2641 0.05359,0.5256 0.17897,0.7581c0.10428,0.1935 0.27091,0.3601 0.60413,0.6933c0.33323,0.3332 0.49985,0.4998 0.69325,0.6041c0.23255,0.1254 0.49408,0.1872 0.75815,0.179c0.21962,-0.0068 0.44316,-0.0813 0.89024,-0.2303l0.52698,-0.1757c0.63531,-0.2117 1.32558,0.1084 1.57429,0.7302c0.17299,0.4325 0.25949,0.6488 0.39169,0.8176c0.1935,0.247 0.4596,0.4272 0.7608,0.5151c0.2058,0.06 0.4387,0.06 0.9046,0.06c0.4659,0 0.6988,0 0.9046,-0.06c0.3012,-0.0879 0.5673,-0.2681 0.7608,-0.5151c0.1322,-0.1688 0.2187,-0.3851 0.3917,-0.8176c0.2487,-0.6218 0.939,-0.9419 1.5742,-0.73l0.5266,0.1756c0.4471,0.149 0.6707,0.2235 0.8903,0.2303c0.2641,0.0081 0.5256,-0.0536 0.7581,-0.179c0.1934,-0.1043 0.3601,-0.2709 0.6933,-0.6041c0.3332,-0.3332 0.4998,-0.4999 0.6041,-0.6933c0.1254,-0.2325 0.1871,-0.4941 0.179,-0.7581c-0.0068,-0.2196 -0.0813,-0.4432 -0.2303,-0.8903l-0.215,-0.645c-0.1897,-0.569 0.097,-1.1872 0.6539,-1.4099c0.5447,-0.2179 0.8171,-0.3269 1.0175,-0.5089c0.177,-0.1609 0.313,-0.3617 0.3966,-0.5858c0.0946,-0.2537 0.0946,-0.5499 0.0946,-1.1425c0,-0.5005 0,-0.7507 -0.0711,-0.9733c-0.0629,-0.197 -0.1659,-0.3789 -0.3024,-0.5342c-0.1544,-0.1755 -0.3668,-0.303 -0.7917,-0.55793l-0.2779,-0.16671c-0.6091,-0.36549 -0.863,-1.11902 -0.5991,-1.77858c0.1684,-0.42115 0.2527,-0.63175 0.2742,-0.84015c0.0316,-0.30617 -0.0317,-0.61466 -0.1814,-0.88362c-0.1019,-0.18306 -0.2622,-0.34344 -0.583,-0.66419c-0.3018,-0.30178 -0.4527,-0.45268 -0.625,-0.55179c-0.2532,-0.14559 -0.5434,-0.21409 -0.835,-0.19711c-0.1985,0.01157 -0.4009,0.07905 -0.8058,0.21401l-0.5704,0.19014c-0.6353,0.21177 -1.3256,-0.10837 -1.5743,-0.73015c-0.173,-0.43256 -0.2595,-0.64884 -0.3917,-0.81761c-0.1935,-0.24703 -0.4596,-0.42717 -0.7608,-0.51506z"/>
    </g>
   </svg>
  </g>
 </g>
</svg>