<svg width="800" height="800" xmlns="http://www.w3.org/2000/svg">

 <g>
  <title>Layer 1</title>
  <g id="svg_4">
   <svg x="-4" id="svg_9" y="7" xmlns="http://www.w3.org/2000/svg" fill="none" viewBox="0 0 24 24" height="800" width="800">
    <g stroke-width="0" id="svg_3"/>
    <g stroke-linejoin="round" stroke-linecap="round" id="svg_2"/>
    <g id="svg_1">
     <path id="svg_10" stroke-linejoin="round" stroke-width="2" stroke="#606468" d="m17.8284,6.82843c0.5781,0.57806 0.8671,0.86709 1.0194,1.23463c0.1522,0.36754 0.1522,0.77629 0.1522,1.59379l0,7.34315c0,1.8856 0,2.8284 -0.5858,3.4142c-0.5858,0.5858 -1.5286,0.5858 -3.4142,0.5858l-6,0c-1.88562,0 -2.82843,0 -3.41421,-0.5858c-0.58579,-0.5858 -0.58579,-1.5286 -0.58579,-3.4142l0,-10c0,-1.88562 0,-2.82843 0.58579,-3.41421c0.58578,-0.58579 1.52859,-0.58579 3.41421,-0.58579l3.3431,0c0.8175,0 1.2263,0 1.5938,0.15224c0.3676,0.15224 0.6566,0.44127 1.2347,1.01933l2.6568,2.65686z"/>
    </g>
   </svg>
  </g>
  <g transform="matrix(0.445622, 0, 0, 0.417542, -19.8579, 322.026)" id="svg_13">
   <svg x="535.45089" id="svg_11" y="-131.20728" xmlns="http://www.w3.org/2000/svg" fill="none" viewBox="0 0 16 16" height="800" width="800">
    <g stroke-width="0" id="svg_7"/>
    <g stroke-linejoin="round" stroke-linecap="round" id="svg_6"/>
    <g id="svg_5">
     <path id="svg_12" fill="#606468" d="m4.12903,5.54839c-1.42525,0 -2.58064,1.15539 -2.58064,2.58064c0,1.42525 1.15539,2.58067 2.58064,2.58067c1.15552,0 2.13366,-0.75948 2.4625,-1.80647l-1.94637,0c-0.42757,0 -0.77419,-0.34662 -0.77419,-0.7742c0,-0.42757 0.34662,-0.77419 0.77419,-0.77419l3.16924,0c0.36238,-1.91035 2.04078,-3.35484 4.0566,-3.35484c2.2804,0 4.129,1.84863 4.129,4.12903c0,2.28037 -1.8486,4.12907 -4.129,4.12907c-1.7739,0 -3.28657,-1.1187 -3.871,-2.68901c-0.58442,1.57031 -2.09706,2.68901 -3.87097,2.68901c-2.2804,0 -4.12903,-1.8487 -4.12903,-4.12907c0,-2.2804 1.84863,-4.12903 4.12903,-4.12903c0.81743,0 1.58156,0.23833 2.22389,0.64957c0.3601,0.23054 0.46512,0.70935 0.23458,1.06945c-0.23055,0.3601 -0.70936,0.46512 -1.06945,0.23458c-0.40056,-0.25645 -0.87623,-0.40521 -1.38902,-0.40521zm7.74197,0c-1.4253,0 -2.58068,1.15539 -2.58068,2.58064c0,1.42525 1.15538,2.58067 2.58068,2.58067c1.4252,0 2.5806,-1.15542 2.5806,-2.58067c0,-1.42525 -1.1554,-2.58064 -2.5806,-2.58064z" clip-rule="nonzero" fill-rule="nonzero"/>
    </g>
   </svg>
  </g>
 </g>
</svg>