<svg width="800" height="800" xmlns="http://www.w3.org/2000/svg">

 <g>
  <title>Layer 1</title>
  <g id="svg_4">
   <svg id="svg_6" y="0" xmlns="http://www.w3.org/2000/svg" fill="none" viewBox="0 0 24 24" height="800" width="800">
    <g stroke-width="0" id="svg_3"/>
    <g stroke-linejoin="round" stroke-linecap="round" id="svg_2"/>
    <g id="svg_1">
     <path id="svg_7" stroke-linejoin="round" stroke-width="2" stroke="#606468" d="m17.8284,6.82843c0.5781,0.57806 0.8671,0.86709 1.0194,1.23463c0.1522,0.36754 0.1522,0.77629 0.1522,1.59379l0,7.34315c0,1.8856 0,2.8284 -0.5858,3.4142c-0.5858,0.5858 -1.5286,0.5858 -3.4142,0.5858l-6,0c-1.88562,0 -2.82843,0 -3.41421,-0.5858c-0.58579,-0.5858 -0.58579,-1.5286 -0.58579,-3.4142l0,-10c0,-1.88562 0,-2.82843 0.58579,-3.41421c0.58578,-0.58579 1.52859,-0.58579 3.41421,-0.58579l3.3431,0c0.8175,0 1.2263,0 1.5938,0.15224c0.3676,0.15224 0.6566,0.44127 1.2347,1.01933l2.6568,2.65686z"/>
    </g>
   </svg>
  </g>
  <g transform="matrix(0.247444, 0, 0, 0.222271, 121.628, 1.75963)" id="svg_12">
   <svg fill="#606468" x="713.83125" id="svg_8" y="1198.92844" preserveAspectRatio="xMidYMid meet" viewBox="0 0 818.000000 1280.000000" height="1280" width="818" xmlns="http://www.w3.org/2000/svg" version="1">
    <metadata fill="#606468">Created by potrace 1.15, written by Peter Selinger 2001-2017</metadata>
    <g id="svg_9" fill="#000000" transform="translate(0.000000,1280.000000) scale(0.100000,-0.100000)">
     <path fill="#606468" id="svg_10" d="m1395,12611l-1390,-186l-3,-6213l-2,-6212l102,1c75,0 491,52 1503,188l1400,187l5,2595c6,2858 1,2656 66,2948c91,407 277,686 549,823c232,117 643,143 920,58c128,-40 222,-96 316,-190c166,-166 233,-359 291,-840c8,-68 12,-892 15,-2932l4,-2838l102,1c74,0 491,52 1502,188l1400,187l3,3005c3,3369 5,3281 -69,3684c-181,986 -779,1836 -1589,2263c-330,174 -649,269 -1120,334c-152,21 -742,17 -895,-5c-456,-68 -777,-186 -1164,-428c-86,-54 -236,-158 -303,-210l-28,-21l0,1901l0,1901l-112,-1c-85,-1 -459,-48 -1503,-188z"/>
    </g>
   </svg>
  </g>
 </g>
</svg>