<svg width="800" height="800" xmlns="http://www.w3.org/2000/svg">

 <g>
  <title>Layer 1</title>
  <g id="svg_4">
   <svg id="svg_9" y="0" xmlns="http://www.w3.org/2000/svg" fill="none" viewBox="0 0 24 24" height="800" width="800">
    <g stroke-width="0" id="svg_3"/>
    <g stroke-linejoin="round" stroke-linecap="round" id="svg_2"/>
    <g id="svg_1">
     <path id="svg_10" stroke-linejoin="round" stroke-width="2" stroke="#606468" d="m17.8284,6.82843c0.5781,0.57806 0.8671,0.86709 1.0194,1.23463c0.1522,0.36754 0.1522,0.77629 0.1522,1.59379l0,7.34315c0,1.8856 0,2.8284 -0.5858,3.4142c-0.5858,0.5858 -1.5286,0.5858 -3.4142,0.5858l-6,0c-1.88562,0 -2.82843,0 -3.41421,-0.5858c-0.58579,-0.5858 -0.58579,-1.5286 -0.58579,-3.4142l0,-10c0,-1.88562 0,-2.82843 0.58579,-3.41421c0.58578,-0.58579 1.52859,-0.58579 3.41421,-0.58579l3.3431,0c0.8175,0 1.2263,0 1.5938,0.15224c0.3676,0.15224 0.6566,0.44127 1.2347,1.01933l2.6568,2.65686z"/>
    </g>
   </svg>
  </g>
  <g transform="matrix(0.498887, 0, 0, 0.464771, 66.8151, 499.547)" id="svg_8">
   <svg x="251.46983" id="svg_11" y="-584.85183" stroke="#606468" xmlns="http://www.w3.org/2000/svg" fill="none" viewBox="0 0 24 24" height="800" width="800">
    <g stroke-width="0" id="svg_7"/>
    <g stroke-linejoin="round" stroke-linecap="round" id="svg_6"/>
    <g id="svg_5">
     <path id="svg_12" stroke-linejoin="round" stroke-linecap="round" stroke-width="2" stroke="#606468" d="m13.4126,15l-2.8705,-4.0665c-0.4572,-0.6477 -0.68574,-0.97146 -0.96686,-1.08061c-0.24583,-0.09545 -0.51941,-0.08993 -0.76119,0.01536c-0.27649,0.1204 -0.49181,0.45315 -0.92244,1.11865l-3.63424,5.6166c-0.0954,0.1474 -0.1431,0.2212 -0.17689,0.3006c-0.02998,0.0705 -0.05176,0.1442 -0.06491,0.2197c-0.01482,0.085 -0.01484,0.1729 -0.01489,0.3485l-0.00068,2.5277l16.0008,0l0,-2.5396c0,-0.1713 0,-0.2569 -0.0141,-0.34c-0.0125,-0.0737 -0.0333,-0.1458 -0.0618,-0.2149c-0.0323,-0.0779 -0.0778,-0.1504 -0.1688,-0.2955l-0.9661,-1.5398c-0.8538,-1.3607 -1.2807,-2.0411 -1.8355,-2.2891c-0.485,-0.2169 -1.0364,-0.2319 -1.5324,-0.0416c-0.5674,0.2175 -1.0306,0.8737 -1.957,2.1861l-0.0525,0.0744zm0,0l3.5419,5m3.0463,-14c0,1.10457 -0.8954,2 -2,2c-1.1046,0 -2,-0.89543 -2,-2c0,-1.10457 0.8954,-2 2,-2c1.1046,0 2,0.89543 2,2z"/>
    </g>
   </svg>
  </g>
 </g>
</svg>