<svg width="800" height="800" xmlns="http://www.w3.org/2000/svg">

 <g>
  <title>Layer 1</title>
  <svg id="svg_9" y="0" xmlns="http://www.w3.org/2000/svg" fill="none" viewBox="0 0 24 24" height="800" width="800">
   <g stroke-width="0" id="svg_3"/>
   <g stroke-linejoin="round" stroke-linecap="round" id="svg_2"/>
   <g id="svg_1">
    <path id="svg_10" stroke-linejoin="round" stroke-width="2" stroke="#606468" d="m17.8284,6.82843c0.5781,0.57806 0.8671,0.86709 1.0194,1.23463c0.1522,0.36754 0.1522,0.77629 0.1522,1.59379l0,7.34315c0,1.8856 0,2.8284 -0.5858,3.4142c-0.5858,0.5858 -1.5286,0.5858 -3.4142,0.5858l-6,0c-1.88562,0 -2.82843,0 -3.41421,-0.5858c-0.58579,-0.5858 -0.58579,-1.5286 -0.58579,-3.4142l0,-10c0,-1.88562 0,-2.82843 0.58579,-3.41421c0.58578,-0.58579 1.52859,-0.58579 3.41421,-0.58579l3.3431,0c0.8175,0 1.2263,0 1.5938,0.15224c0.3676,0.15224 0.6566,0.44127 1.2347,1.01933l2.6568,2.65686z"/>
   </g>
  </svg>
  <g transform="matrix(0.340555, 0, 0, 0.318136, 62.3277, 303.36)" id="svg_8">
   <svg x="570.97934" id="svg_11" y="-42.79562" xmlns="http://www.w3.org/2000/svg" fill="none" viewBox="0 0 16 16" height="800" width="800">
    <g stroke-width="0" id="svg_7"/>
    <g stroke-linejoin="round" stroke-linecap="round" id="svg_6"/>
    <g id="svg_5">
     <path id="svg_12" fill="#606468" d="m0,1.75c0,-0.9665 0.7835,-1.75 1.75,-1.75l12.5,0c0.9665,0 1.75,0.7835 1.75,1.75l0,2c0,0.41421 -0.3358,0.75 -0.75,0.75c-0.4142,0 -0.75,-0.33579 -0.75,-0.75l0,-2c0,-0.13807 -0.1119,-0.25 -0.25,-0.25l-12.5,0c-0.13807,0 -0.25,0.11193 -0.25,0.25l0,12.5c0,0.1381 0.11193,0.25 0.25,0.25l13.5,0c0.4142,0 0.75,0.3358 0.75,0.75c0,0.4142 -0.3358,0.75 -0.75,0.75l-13.5,0c-0.9665,0 -1.75,-0.7835 -1.75,-1.75l0,-12.5zm8.25,4c0.41421,0 0.75,0.33579 0.75,0.75l0,4c0,1.0048 -0.27601,1.7584 -0.84486,2.2324c-0.54291,0.4524 -1.2013,0.5176 -1.65514,0.5176c-0.41421,0 -0.75,-0.3358 -0.75,-0.75c0,-0.4142 0.33579,-0.75 0.75,-0.75c0.34617,0 0.56277,-0.0598 0.69486,-0.1699c0.10614,-0.0885 0.30514,-0.3349 0.30514,-1.0801l0,-4c0,-0.41421 0.33578,-0.75 0.75,-0.75zm3.0257,0.83011c0.4187,-0.49847 1.075,-0.83011 1.9743,-0.83011c0.8349,0 1.4648,0.28567 1.8894,0.73481c0.2845,0.30102 0.2711,0.77571 -0.0299,1.06024c-0.301,0.28453 -0.7757,0.27116 -1.0602,-0.02986c-0.1099,-0.11621 -0.3289,-0.26519 -0.7993,-0.26519c-0.5007,0 -0.7194,0.16836 -0.8257,0.29489c-0.1309,0.15576 -0.1743,0.35111 -0.1743,0.45511c0,0.104 0.0434,0.29935 0.1743,0.45511c0.1063,0.12653 0.325,0.29489 0.8257,0.29489c0.0757,0 0.1488,0.01121 0.2176,0.03207c0.6631,0.09439 1.1643,0.39044 1.5067,0.79804c0.3941,0.46919 0.5257,1.02389 0.5257,1.41989c0,0.396 -0.1316,0.9507 -0.5257,1.4199c-0.4187,0.4985 -1.075,0.8301 -1.9743,0.8301c-0.8349,0 -1.4648,-0.2857 -1.8894,-0.7348c-0.2845,-0.301 -0.2711,-0.7757 0.0299,-1.0603c0.301,-0.2845 0.7757,-0.2711 1.0602,0.0299c0.1099,0.1162 0.3289,0.2652 0.7993,0.2652c0.5007,0 0.7194,-0.1684 0.8257,-0.2949c0.1309,-0.1558 0.1743,-0.3511 0.1743,-0.4551c0,-0.104 -0.0434,-0.2993 -0.1743,-0.4551c-0.1063,-0.1265 -0.325,-0.2949 -0.8257,-0.2949c-0.0757,0 -0.1488,-0.0112 -0.2176,-0.0321c-0.6631,-0.0944 -1.1643,-0.39041 -1.5067,-0.79801c-0.3941,-0.46924 -0.5257,-1.02389 -0.5257,-1.41989c0,-0.396 0.1316,-0.95065 0.5257,-1.41989z" clip-rule="nonzero" fill-rule="nonzero"/>
    </g>
   </svg>
  </g>
 </g>
</svg>