<svg width="800" height="800" xmlns="http://www.w3.org/2000/svg">

 <g>
  <title>Layer 1</title>
  <svg x="9.99996" id="svg_19" y="-27.4999" xmlns="http://www.w3.org/2000/svg" fill="none" viewBox="0 0 24 24" height="800" width="800">
   <g stroke-width="0" id="svg_3"/>
   <g stroke-linejoin="round" stroke-linecap="round" id="svg_2"/>
   <g id="svg_1">
    <path id="svg_20" stroke-linejoin="round" stroke-width="2" stroke="#606468" d="m17.8284,6.82843c0.5781,0.57806 0.8671,0.86709 1.0194,1.23463c0.1522,0.36754 0.1522,0.77629 0.1522,1.59379l0,7.34315c0,1.8856 0,2.8284 -0.5858,3.4142c-0.5858,0.5858 -1.5286,0.5858 -3.4142,0.5858l-6,0c-1.88562,0 -2.82843,0 -3.41421,-0.5858c-0.58579,-0.5858 -0.58579,-1.5286 -0.58579,-3.4142l0,-10c0,-1.88562 0,-2.82843 0.58579,-3.41421c0.58578,-0.58579 1.52859,-0.58579 3.41421,-0.58579l3.3431,0c0.8175,0 1.2263,0 1.5938,0.15224c0.3676,0.15224 0.6566,0.44127 1.2347,1.01933l2.6568,2.65686z"/>
   </g>
  </svg>
  <g transform="matrix(0.529211, 0, 0, 0.534993, 64.6056, 5.22376)" id="svg_22">
   <svg x="238.4845" y="288.84836" stroke="#606486" xml:space="preserve" viewBox="0 0 305.001 305.001" xmlns:xlink="http://www.w3.org/1999/xlink" xmlns="http://www.w3.org/2000/svg" id="svg_5" version="1.1" width="800" height="800" fill="#606468">
    <g stroke-width="0" id="svg_17"/>
    <g stroke-linejoin="round" stroke-linecap="round" id="svg_16"/>
    <g id="svg_6">
     <g id="svg_7">
      <path fill="#606468" d="m150.99,56.513c-14.093,9.912 -30.066,21.147 -38.624,39.734c-14.865,32.426 30.418,67.798 32.353,69.288c0.45,0.347 0.988,0.519 1.525,0.519c0.57,0 1.141,-0.195 1.605,-0.583c0.899,-0.752 1.154,-2.029 0.614,-3.069c-0.164,-0.316 -16.418,-31.888 -15.814,-54.539c0.214,-7.888 11.254,-16.837 22.942,-26.312c10.705,-8.678 22.839,-18.514 29.939,-30.02c15.586,-25.327 -1.737,-50.231 -1.914,-50.479c-0.688,-0.966 -1.958,-1.317 -3.044,-0.84c-1.085,0.478 -1.686,1.652 -1.438,2.811c0.035,0.164 3.404,16.633 -5.97,33.6c-3.863,7.011 -12.348,12.98 -22.174,19.89z" id="svg_15"/>
      <path fill="#606468" d="m210.365,67.682c0.994,-0.749 1.286,-2.115 0.684,-3.205c-0.602,-1.09 -1.913,-1.571 -3.077,-1.129c-2.394,0.91 -58.627,22.585 -58.627,48.776c0,18.053 7.712,27.591 13.343,34.556c2.209,2.731 4.116,5.09 4.744,7.104c1.769,5.804 -2.422,16.294 -4.184,19.846c-0.508,1.022 -0.259,2.259 0.605,3.005c0.467,0.403 1.05,0.607 1.634,0.607c0.497,0 0.996,-0.148 1.427,-0.448c0.967,-0.673 23.63,-16.696 19.565,-36.001c-1.514,-7.337 -5.12,-12.699 -8.302,-17.43c-4.929,-7.329 -8.489,-12.624 -3.088,-22.403c6.33,-11.404 34.987,-33.061 35.276,-33.278z" id="svg_14"/>
      <path fill="#606468" d="m63.99,177.659c-0.964,2.885 -0.509,5.75 1.315,8.283c6.096,8.462 27.688,13.123 60.802,13.123c0.002,0 0.003,0 0.004,0c4.487,0 9.224,-0.088 14.076,-0.262c52.943,-1.896 72.58,-18.389 73.39,-19.09c0.883,-0.764 1.119,-2.037 0.57,-3.067c-0.549,-1.029 -1.733,-1.546 -2.864,-1.235c-18.645,5.091 -53.463,6.898 -77.613,6.898c-27.023,0 -40.785,-1.946 -44.154,-3.383c1.729,-2.374 12.392,-6.613 25.605,-9.212c1.263,-0.248 2.131,-1.414 2.006,-2.695c-0.125,-1.281 -1.201,-2.258 -2.488,-2.258c-7.746,0.001 -46.589,0.623 -50.649,12.898z" id="svg_13"/>
      <path fill="#606468" d="m241.148,160.673c-10.92,0 -21.275,5.472 -21.711,5.705c-1.01,0.541 -1.522,1.699 -1.245,2.811c0.278,1.111 1.277,1.892 2.423,1.893c0.232,0.001 23.293,0.189 25.382,13.365c1.85,11.367 -21.82,29.785 -31.097,35.923c-1.002,0.663 -1.391,1.945 -0.926,3.052c0.395,0.943 1.314,1.533 2.304,1.533c0.173,0 0.348,-0.018 0.522,-0.056c2.202,-0.47 53.855,-11.852 48.394,-41.927c-3.332,-18.431 -14.916,-22.299 -24.046,-22.299z" id="svg_12"/>
      <path fill="#606468" d="m205.725,216.69c0.18,-0.964 -0.221,-1.944 -1.023,-2.506l-12.385,-8.675c-0.604,-0.423 -1.367,-0.556 -2.076,-0.368c-0.129,0.034 -13.081,3.438 -31.885,5.526c-7.463,0.837 -15.822,1.279 -24.175,1.279c-18.799,0 -31.091,-2.209 -32.881,-3.829c-0.237,-0.455 -0.162,-0.662 -0.12,-0.777c0.325,-0.905 2.068,-1.98 3.192,-2.405c1.241,-0.459 1.91,-1.807 1.524,-3.073c-0.385,-1.266 -1.69,-2.012 -2.978,-1.702c-12.424,2.998 -18.499,7.191 -18.057,12.461c0.785,9.343 22.428,14.139 40.725,15.408c2.631,0.18 5.477,0.272 8.456,0.272c0.002,0 0.003,0 0.005,0c30.425,0 69.429,-9.546 69.819,-9.643c0.952,-0.235 1.678,-1.004 1.859,-1.968z" id="svg_11"/>
      <path fill="#606468" d="m112.351,236.745c0.938,-0.611 1.354,-1.77 1.021,-2.838c-0.332,-1.068 -1.331,-1.769 -2.453,-1.755c-1.665,0.044 -16.292,0.704 -17.316,10.017c-0.31,2.783 0.487,5.325 2.37,7.556c5.252,6.224 19.428,9.923 43.332,11.31c2.828,0.169 5.7,0.254 8.539,0.254c30.39,0 50.857,-9.515 51.714,-9.92c0.831,-0.393 1.379,-1.209 1.428,-2.127c0.049,-0.917 -0.409,-1.788 -1.193,-2.267l-15.652,-9.555c-0.543,-0.331 -1.193,-0.441 -1.813,-0.314c-0.099,0.021 -10.037,2.082 -25.035,4.119c-2.838,0.385 -6.392,0.581 -10.562,0.581c-14.982,0 -31.646,-2.448 -34.842,-4.05c-0.046,-0.301 0.013,-0.681 0.462,-1.011z" id="svg_10"/>
      <path fill="#606468" d="m133.681,290.018c69.61,-0.059 106.971,-12.438 114.168,-20.228c2.548,-2.757 2.823,-5.366 2.606,-7.07c-0.535,-4.194 -4.354,-6.761 -4.788,-7.04c-1.045,-0.672 -2.447,-0.496 -3.262,0.444c-0.813,0.941 -0.832,2.314 -0.016,3.253c0.439,0.565 0.693,1.51 -0.591,2.795c-2.877,2.687 -31.897,10.844 -80.215,13.294c-6.619,0.345 -13.561,0.519 -20.633,0.52c-43.262,0 -74.923,-5.925 -79.079,-9.379c1.603,-2.301 12.801,-5.979 24.711,-8.058c1.342,-0.234 2.249,-1.499 2.041,-2.845c-0.208,-1.346 -1.449,-2.273 -2.805,-2.096c-0.336,0.045 -1.475,0.115 -2.796,0.195c-19.651,1.2 -42.36,3.875 -43.545,13.999c-0.36,3.086 0.557,5.886 2.726,8.324c5.307,5.963 20.562,13.891 91.475,13.891c0.002,0.001 0.002,0.001 0.003,0.001z" id="svg_9"/>
      <path fill="#606468" d="m261.522,271.985c-0.984,-0.455 -2.146,-0.225 -2.881,0.567c-0.103,0.11 -10.568,11.054 -42.035,17.48c-12.047,2.414 -34.66,3.638 -67.211,3.638c-32.612,0 -63.643,-1.283 -63.953,-1.296c-1.296,-0.063 -2.405,0.879 -2.581,2.155c-0.177,1.276 0.645,2.477 1.897,2.775c0.323,0.077 32.844,7.696 77.31,7.696c21.327,0 42.08,-1.733 61.684,-5.151c36.553,-6.408 39.112,-24.533 39.203,-25.301c0.127,-1.074 -0.451,-2.108 -1.433,-2.563z" id="svg_8"/>
     </g>
    </g>
   </svg>
  </g>
 </g>
</svg>