<svg width="800" height="800" xmlns="http://www.w3.org/2000/svg">

 <g>
  <title>Layer 1</title>
  <svg x="9.99996" id="svg_10" y="-9.99996" xmlns="http://www.w3.org/2000/svg" fill="none" viewBox="0 0 24 24" height="800" width="800">
   <g stroke-width="0" id="svg_3"/>
   <g stroke-linejoin="round" stroke-linecap="round" id="svg_2"/>
   <g id="svg_1">
    <path id="svg_11" stroke-linejoin="round" stroke-width="2" stroke="#606468" d="m17.8284,6.82843c0.5781,0.57806 0.8671,0.86709 1.0194,1.23463c0.1522,0.36754 0.1522,0.77629 0.1522,1.59379l0,7.34315c0,1.8856 0,2.8284 -0.5858,3.4142c-0.5858,0.5858 -1.5286,0.5858 -3.4142,0.5858l-6,0c-1.88562,0 -2.82843,0 -3.41421,-0.5858c-0.58579,-0.5858 -0.58579,-1.5286 -0.58579,-3.4142l0,-10c0,-1.88562 0,-2.82843 0.58579,-3.41421c0.58578,-0.58579 1.52859,-0.58579 3.41421,-0.58579l3.3431,0c0.8175,0 1.2263,0 1.5938,0.15224c0.3676,0.15224 0.6566,0.44127 1.2347,1.01933l2.6568,2.65686z"/>
   </g>
  </svg>
  <g transform="matrix(0.357409, 0, 0, 0.368241, -127.956, 642.377)" id="svg_9">
   <svg x="1040.70164" y="-1010.1896" stroke="#606468" fill="#606468" xml:space="preserve" viewBox="0 0 512 512" xmlns:xlink="http://www.w3.org/1999/xlink" xmlns="http://www.w3.org/2000/svg" id="svg_5" version="1.1" width="800" height="800">
    <g stroke-width="0" id="svg_8"/>
    <g stroke-linejoin="round" stroke-linecap="round" id="svg_7"/>
    <g id="svg_6">
     <g id="svg_12">
      <path id="svg_13" fill="#606468" d="m135.288,43.144l0,85.309l0,248.423c-16.582,-6.093 -36.179,-7.908 -56.37,-4.002c-48.504,9.332 -81.902,47.602 -74.598,85.438c7.293,37.856 52.506,60.956 101,51.614c43.037,-8.291 74.12,-39.375 75.458,-72.772l0.276,0l0,-247.861l281.875,-30.914l0,177.509c-16.593,-6.082 -36.169,-7.877 -56.36,-3.981c-48.515,9.32 -81.891,47.592 -74.62,85.437c7.293,37.846 52.496,60.946 101.001,51.594c43.047,-8.28 74.142,-39.375 75.458,-72.751l0.276,0l0,-308.7l0,-87.487l-373.396,43.144zm327.64,89.004l-281.875,30.913l0,-37.613l281.875,-34.958l0,41.658z" class="st0"/>
     </g>
    </g>
   </svg>
  </g>
 </g>
</svg>