<svg width="800" height="800" xmlns="http://www.w3.org/2000/svg">

 <g>
  <title>Layer 1</title>
  <g id="svg_4">
   <svg id="svg_9" y="0" xmlns="http://www.w3.org/2000/svg" fill="none" viewBox="0 0 24 24" height="800" width="800">
    <g stroke-width="0" id="svg_3"/>
    <g stroke-linejoin="round" stroke-linecap="round" id="svg_2"/>
    <g id="svg_1">
     <path id="svg_10" stroke-linejoin="round" stroke-width="2" stroke="#606468" d="m17.8284,6.82843c0.5781,0.57806 0.8671,0.86709 1.0194,1.23463c0.1522,0.36754 0.1522,0.77629 0.1522,1.59379l0,7.34315c0,1.8856 0,2.8284 -0.5858,3.4142c-0.5858,0.5858 -1.5286,0.5858 -3.4142,0.5858l-6,0c-1.88562,0 -2.82843,0 -3.41421,-0.5858c-0.58579,-0.5858 -0.58579,-1.5286 -0.58579,-3.4142l0,-10c0,-1.88562 0,-2.82843 0.58579,-3.41421c0.58578,-0.58579 1.52859,-0.58579 3.41421,-0.58579l3.3431,0c0.8175,0 1.2263,0 1.5938,0.15224c0.3676,0.15224 0.6566,0.44127 1.2347,1.01933l2.6568,2.65686z"/>
    </g>
   </svg>
  </g>
  <g transform="matrix(0.506533, 0, 0, 0.44485, -26.4297, 151.993)" id="svg_8">
   <svg x="418.52789" id="svg_11" y="224.95274" xmlns="http://www.w3.org/2000/svg" aria-hidden="true" focusable="false" role="img" viewBox="0 0 14 14" height="800" width="800" fill="#606468">
    <g stroke-width="0" id="svg_7"/>
    <g stroke-linejoin="round" stroke-linecap="round" id="svg_6"/>
    <g id="svg_5">
     <path id="svg_12" d="m12.46421,6.91359c0,0 -0.19125,-0.22756 -0.21796,-0.51537c-0.02675,-0.28803 0.10711,-0.18751 0.10711,-0.18751c0,0 -0.05368,-0.38179 -0.32156,-0.7099c-0.2677,-0.32813 -0.55573,-0.71649 -0.68299,-1.23214c-0.12726,-0.51562 -0.36142,-0.81678 -0.52219,-1.02445c-0.1608,-0.20766 -0.2278,-0.61616 -0.32156,-0.76332c-0.09376,-0.14747 -0.10712,-0.96097 -0.78331,-1.33433c-0.67639,-0.37336 -1.90853,0.0553 -2.27014,0.3096c-0.36167,0.25456 -0.68978,0.9912 -1.125,1.29261c-0.43525,0.30117 -0.7901,0.30796 -1.13835,0.90401c-0.34803,0.59574 -0.42189,0.93726 -0.40503,1.28554c0,0 -0.25127,0.0302 -0.28124,-0.1104c-0.03022,-0.14062 0.07033,-0.61288 0.14062,-0.7535c0,0 0.07033,0.0604 0.06025,0.1207c0,0 0.21095,-0.43197 0.08037,-0.69306c0,0 0.07033,0.015 0.10547,0.0501c0,0 0.08533,-0.40683 0.08533,-0.67285c0,-0.26627 -0.10054,-0.47226 -0.27631,-0.59276c0,0 0.1308,-0.17062 -0.015,-0.35643c0,0 -0.06518,-0.14934 -0.23602,-0.3258c-0.17062,-0.1765 -0.30142,-0.27704 -0.47719,-0.27186c0,0 0.03025,-0.0654 0.0605,-0.10548c0,0 -0.1458,0.0171 -0.19594,0.0839c0,0 -0.08037,-0.0487 -0.0954,-0.16428c0,0 -0.14062,0.0401 -0.15588,0.14062c0,0 -0.3096,-0.10547 -0.44178,0.23107c0,0 0.05018,0.0199 0.06518,0.0551c0,0 -0.04525,0.10058 -0.24095,0.11555c-0.19595,0.0151 -0.75846,0 -0.92905,0.0602c-0.17087,0.0603 -0.24117,0.12069 -0.24117,0.19102c0,0 -0.08533,0.0401 -0.12565,0.22594c0,0 -0.13358,0.0652 -0.13358,0.18073c0,0.11555 0.07336,0.082 0.07336,0.082c0,0 -0.0804,0.22945 0.20084,0.24442c0,0 0.04525,0.11558 0.28642,0.11558c0.24095,0 0.41675,0.0401 0.51726,0.19077c0,0 -0.08037,0.30142 -0.39678,0.57748c0,0 0.07033,0.0101 0.14062,0.005c0,0 -0.27635,0.23087 -0.34668,0.56744c0,0 0.09565,-0.0954 0.15073,-0.0905c0,0 -0.34642,0.95927 0.13569,1.90853c0,0 0.04522,-0.0954 0.06515,-0.10547c0,0 -0.01993,0.32157 0.17577,0.57262c0,0 0.01522,-0.14062 0.09047,-0.19083c0,0 0.30098,0.54726 0.6101,0.79335c0.30891,0.2461 0.78117,0.36164 0.88664,0.61269c0,0 0.16573,-0.18514 0.16573,-0.30587c0,0 0.04522,0.11504 0.03,0.23555c0,0 0.18587,-0.0902 0.24609,-0.14043c0.06025,-0.0504 0.32157,-0.23103 0.35672,0.0602c0.03515,0.29112 -0.25781,0.87375 0.01011,1.597c0,0 -0.09376,0.13175 -0.09376,0.30682c0,0.17533 0.1338,0.2623 0.1338,0.34266c0,0.0804 -0.06022,0.22785 -0.06022,0.38182c0,0.15398 0.14062,0.40008 0.01336,0.94996c-0.12727,0.54978 -0.18073,0.69726 -0.25456,0.79101c-0.07358,0.0938 -0.36164,0.2545 -0.30796,0.52241c0,0 -0.67616,0.087 -0.66959,0.32135c0.0068,0.23438 0.34825,0.30745 0.75656,0.30745c0.40854,0 0.51518,-0.0865 0.52876,-0.23387c0.01383,-0.14722 -0.09401,-0.17419 0,-0.2611c0.09423,-0.087 0.19452,-0.18751 0.18116,-0.55572c-0.01336,-0.36846 0.16737,-0.70989 0.16737,-0.70989c0,0 -0.03354,-0.31481 0.07383,-0.50886c0.10709,-0.19428 0.39493,-0.57584 0.20087,-1.15853c0,0 0.05343,0.0202 0.12045,0.0267c0,0 -0.11388,-0.32134 0.09376,-0.70973c0.20766,-0.38833 0.31477,-1.17865 0.31477,-1.17865c0,0 0.47533,0.0403 0.68296,0c0,0 -0.45537,0.95441 -0.40851,1.67298c0,0 -0.1139,0.11511 -0.1139,0.24237c0,0.12701 0.06704,0.28778 0.18091,0.40172c0.11394,0.11368 0.48894,0.34146 0.69635,0.58919c0.20766,0.2478 0.34828,0.52219 0.4085,0.59602c0,0 -0.19405,0.1273 -0.14062,0.32814c0,0 -0.19427,0.0603 -0.17412,0.22758c0,0 -0.28128,0.007 -0.42847,0.13409c-0.1474,0.12698 -0.22098,0.29457 -0.08716,0.34803c0.13406,0.0537 0.62956,0.0537 0.79686,0.0537c0.16734,0 0.36164,-0.12723 0.375,-0.2142c0.01336,-0.0872 -0.06025,-0.30142 -0.06025,-0.30142c0,0 0.10058,0.0134 0.14062,-0.10714c0,0 0.18752,0.69634 0.47533,0.67616c0,0 0.0403,-0.007 0.04686,-0.0668c0,0 0.13405,0.0333 0.20109,-0.0335c0.06679,-0.067 0.22759,-1.01109 -0.34146,-1.0247c0,0 0.04007,-0.0938 -0.06704,-0.16055c-0.10712,-0.067 0.93751,-1.38609 1.05795,-1.49999c0,0 -0.14741,-1.17843 0.14741,-1.74776c0.2946,-0.56909 0.53555,-0.95766 0.53555,-0.95766c0,0 0.06025,1.26564 0.63612,2.23666c0,0 0.10712,0.14744 0.08037,0.32814c-0.02672,0.18072 -0.10029,0.27445 -0.10029,0.50226c0,0.22758 0.16733,0.83039 0.0065,1.48663c-0.03212,0.1315 -0.35482,0.52222 -0.24092,0.8435c0,0 -0.26785,0.15427 -0.26785,0.35508c0,0.20087 0.12041,0.24097 0.20763,0.24097c0.08694,0 0.13383,-0.087 0.1807,-0.087c0.04686,0 0.1139,0.12726 0.32813,0.12726c0.21423,0 0.40171,-0.17416 0.40171,-0.27467c0,-0.10036 -0.17412,-0.26792 -0.17412,-0.26792c0,0 0.11387,-0.10708 0.11387,-0.24091c0,-0.13409 -0.18069,-0.35482 -0.18069,-0.6361c0,-0.28127 0.05858,-0.82736 0.16733,-1.0648c0.21752,-0.47555 0.19409,-0.85383 0.06704,-0.95412c0,0 0.06679,-0.30468 0.06679,-0.62627c0,-0.32135 -0.24773,-1.18194 -0.0401,-2.04893c0,0 0.24774,-0.36164 0.30142,-0.93091c0,0 0.44861,0.91082 0.11369,1.54685c-0.33468,0.63613 -0.26785,0.62959 -0.27445,0.82361c-0.0068,0.19427 0.09376,0.46222 0.09376,0.46222l0.30492,-0.30821c0,0 -0.0038,-0.21423 0.14368,-0.36824c0.14741,-0.15398 0.25453,-0.57208 0.18752,-0.6876c0,0 0.07358,0.0516 0.10708,0.0783c0,0 0.05368,-0.20084 -0.04686,-0.4954c-0.00006,-0.00007 0.10775,-0.0538 0.22472,0.006l0.00002,0.00073zm-4.02144,3.01341c-0.12726,0.20084 -0.51562,0.83036 -0.51562,0.83036c0,0 -0.40196,-0.22756 -0.529,-0.48211c-0.12724,-0.25453 -0.23438,-0.41508 -0.28803,-0.4554c0,0 0.16405,-0.22077 0.20415,-0.45515c0,0 0.07197,0.006 0.11226,0.14953c0.24332,-0.30609 0.40245,-0.63704 0.44697,-0.98674c0,0 0.06025,0.0602 0.11391,0.0804c0,0 0.0066,-0.24117 0.09376,-0.41508c0.08694,-0.17415 0.27445,-0.39514 0.30138,-0.7301l0.12048,0c0,0 -0.10055,0.75003 0,1.39288c0.10029,0.64294 0.06679,0.8705 -0.06025,1.07141l-0.00001,0z"/>
    </g>
   </svg>
  </g>
 </g>
</svg>