<svg width="800" height="800" xmlns="http://www.w3.org/2000/svg">

 <g>
  <title>Layer 1</title>
  <svg x="1.78568" id="svg_10" y="12.49979" xmlns="http://www.w3.org/2000/svg" fill="none" viewBox="0 0 24 24" height="800" width="800">
   <g stroke-width="0" id="svg_3"/>
   <g stroke-linejoin="round" stroke-linecap="round" id="svg_2"/>
   <g id="svg_1">
    <path id="svg_11" stroke-linejoin="round" stroke-width="2" stroke="#606468" d="m17.8284,6.82843c0.5781,0.57806 0.8671,0.86709 1.0194,1.23463c0.1522,0.36754 0.1522,0.77629 0.1522,1.59379l0,7.34315c0,1.8856 0,2.8284 -0.5858,3.4142c-0.5858,0.5858 -1.5286,0.5858 -3.4142,0.5858l-6,0c-1.88562,0 -2.82843,0 -3.41421,-0.5858c-0.58579,-0.5858 -0.58579,-1.5286 -0.58579,-3.4142l0,-10c0,-1.88562 0,-2.82843 0.58579,-3.41421c0.58578,-0.58579 1.52859,-0.58579 3.41421,-0.58579l3.3431,0c0.8175,0 1.2263,0 1.5938,0.15224c0.3676,0.15224 0.6566,0.44127 1.2347,1.01933l2.6568,2.65686z"/>
   </g>
  </svg>
  <g transform="matrix(0.418755, 0, 0, 0.408123, 35.512, 512.435)" id="svg_9">
   <svg x="469.26409" id="svg_12" y="-605.91218" stroke="#606468" xml:space="preserve" enable-background="new 0 0 512 512" viewBox="0 0 512 512" height="800" width="800" xmlns:xlink="http://www.w3.org/1999/xlink" xmlns="http://www.w3.org/2000/svg" version="1.1" fill="#606468">
    <g stroke-width="0" id="svg_8"/>
    <g stroke-linejoin="round" stroke-linecap="round" id="svg_7"/>
    <g id="svg_5">
     <g id="svg_6">
      <path id="svg_13" d="m171.844,204.374c-11.137,-12.748 -28.856,-19.123 -53.146,-19.123l-80.738,0l-37.46,192.739l41.984,0l9.96,-51.241l35.963,0c15.869,0 28.923,-1.663 39.173,-5.003c10.247,-3.33 19.562,-8.92 27.945,-16.767c7.037,-6.467 12.725,-13.599 17.087,-21.4c4.354,-7.797 7.448,-16.401 9.278,-25.812c4.443,-22.848 1.09,-40.643 -10.046,-53.393zm-33.351,50.449c-2.903,14.917 -8.492,25.563 -16.775,31.941c-8.288,6.38 -20.897,9.569 -37.822,9.569l-25.542,0l15.678,-80.667l28.768,0c15.952,0 26.582,2.943 31.896,8.832c5.31,5.892 6.579,15.999 3.797,30.325zm199.335,-17.764l-17.429,89.69l-42.317,0l16.572,-85.278c1.884,-9.702 1.193,-16.32 -2.084,-19.847c-3.272,-3.529 -10.242,-5.296 -20.9,-5.296l-33.289,0l-21.458,110.421l-41.656,0l37.46,-192.739l41.656,0l-9.959,51.241l37.111,0c23.346,0 39.452,4.077 48.317,12.218c8.866,8.146 11.519,21.344 7.976,39.59zm161.726,-32.685c-11.137,-12.748 -28.856,-19.123 -53.142,-19.123l-80.738,0l-37.46,192.739l41.984,0l9.96,-51.241l35.963,0c15.869,0 28.918,-1.663 39.169,-5.003c10.247,-3.33 19.562,-8.92 27.945,-16.767c7.036,-6.467 12.729,-13.599 17.088,-21.4c4.354,-7.797 7.447,-16.401 9.277,-25.812c4.442,-22.848 1.094,-40.643 -10.046,-53.393zm-33.348,50.449c-2.902,14.917 -8.491,25.563 -16.779,31.941c-8.284,6.38 -20.896,9.569 -37.822,9.569l-25.537,0l15.678,-80.667l28.765,0c15.952,0 26.581,2.943 31.899,8.832c5.31,5.892 6.574,15.999 3.796,30.325z" display="inline"/>
     </g>
    </g>
   </svg>
  </g>
 </g>
</svg>