<svg width="800" height="800" xmlns="http://www.w3.org/2000/svg">
 <g>
  <title>Layer 1</title>
  <g id="svg_4">
   <svg width="800" height="800" viewBox="0 0 24 24" fill="none" xmlns="http://www.w3.org/2000/svg" y="0" id="svg_8">
    <g id="svg_16" stroke-width="0"/>
    <g id="svg_15" stroke-linecap="round" stroke-linejoin="round"/>
    <g id="svg_9">
     <path d="m17.8284,6.82843c0.5781,0.57806 0.8671,0.86709 1.0194,1.23463c0.1522,0.36754 0.1522,0.77629 0.1522,1.59379l0,7.34315c0,1.8856 0,2.8284 -0.5858,3.4142c-0.5858,0.5858 -1.5286,0.5858 -3.4142,0.5858l-6,0c-1.88562,0 -2.82843,0 -3.41421,-0.5858c-0.58579,-0.5858 -0.58579,-1.5286 -0.58579,-3.4142l0,-10c0,-1.88562 0,-2.82843 0.58579,-3.41421c0.58578,-0.58579 1.52859,-0.58579 3.41421,-0.58579l3.3431,0c0.8175,0 1.2263,0 1.5938,0.15224c0.3676,0.15224 0.6566,0.44127 1.2347,1.01933l2.6568,2.65686z" stroke="#606468" stroke-width="2" stroke-linejoin="round" id="svg_13"/>
    </g>
   </svg>
  </g>
  <g id="svg_14" transform="matrix(0.565894, 0, 0, 0.538805, 51.0414, 99.7661)">
   <svg width="800" height="800" viewBox="0 0 32 32" version="1.1" xmlns="http://www.w3.org/2000/svg" xmlns:xlink="http://www.w3.org/1999/xlink" fill="#000000" y="215.30182" id="svg_17" x="213.11309">
    <g id="svg_21" stroke-width="0"/>
    <g id="svg_20" stroke-linecap="round" stroke-linejoin="round"/>
    <g id="svg_18">
     <path fill="#606468" d="m13.275,15.88l5.417,0c1.508,0 2.712,-1.241 2.712,-2.756l0,-5.164c0,-1.47 -1.24,-2.574 -2.712,-2.819c-0.932,-0.155 -1.898,-0.226 -2.825,-0.221s-1.813,0.083 -2.592,0.221c-2.295,0.405 -2.712,1.254 -2.712,2.819l0,2.067l5.423,0l0,0.689l-7.459,0c-1.576,0 -2.956,0.947 -3.388,2.75c-0.498,2.066 -0.52,3.355 0,5.512c0.385,1.606 1.306,2.75 2.882,2.75l1.865,0l0,-2.478c0,-1.79 1.549,-3.369 3.388,-3.369l0.001,-0.001zm-0.342,-7.231c-0.562,0 -1.018,-0.461 -1.018,-1.03c0,-0.572 0.455,-1.037 1.018,-1.037c0.56,0 1.018,0.465 1.018,1.037c0,0.57 -0.457,1.03 -1.018,1.03zm13.893,4.816c-0.389,-1.569 -1.133,-2.75 -2.712,-2.75l-2.035,0l0,2.408c0,1.867 -1.583,3.439 -3.388,3.439l-5.417,0c-1.484,0 -2.712,1.27 -2.712,2.756l0,5.164c0,1.47 1.278,2.334 2.712,2.756c1.717,0.505 3.363,0.596 5.417,0c1.365,-0.395 2.712,-1.191 2.712,-2.756l0,-2.067l-5.417,0l0,-0.689l8.129,0c1.576,0 2.163,-1.099 2.712,-2.75c0.566,-1.699 0.542,-3.332 0,-5.512l-0.001,0.001zm-7.793,10.329c0.562,0 1.018,0.461 1.018,1.03c0,0.572 -0.456,1.037 -1.018,1.037c-0.56,0 -1.018,-0.465 -1.018,-1.037c0,-0.57 0.457,-1.03 1.018,-1.03z" id="svg_19"/>
    </g>
   </svg>
  </g>
 </g>

</svg>