<svg width="800" height="800" xmlns="http://www.w3.org/2000/svg">

 <g>
  <title>Layer 1</title>
  <g id="svg_4">
   <svg id="svg_9" y="0" xmlns="http://www.w3.org/2000/svg" fill="none" viewBox="0 0 24 24" height="800" width="800">
    <g stroke-width="0" id="svg_3"/>
    <g stroke-linejoin="round" stroke-linecap="round" id="svg_2"/>
    <g id="svg_1">
     <path id="svg_10" stroke-linejoin="round" stroke-width="2" stroke="#606468" d="m17.8284,6.82843c0.5781,0.57806 0.8671,0.86709 1.0194,1.23463c0.1522,0.36754 0.1522,0.77629 0.1522,1.59379l0,7.34315c0,1.8856 0,2.8284 -0.5858,3.4142c-0.5858,0.5858 -1.5286,0.5858 -3.4142,0.5858l-6,0c-1.88562,0 -2.82843,0 -3.41421,-0.5858c-0.58579,-0.5858 -0.58579,-1.5286 -0.58579,-3.4142l0,-10c0,-1.88562 0,-2.82843 0.58579,-3.41421c0.58578,-0.58579 1.52859,-0.58579 3.41421,-0.58579l3.3431,0c0.8175,0 1.2263,0 1.5938,0.15224c0.3676,0.15224 0.6566,0.44127 1.2347,1.01933l2.6568,2.65686z"/>
    </g>
   </svg>
  </g>
  <g transform="matrix(0.410926, 0, 0, 0.409254, -90.8464, 302.666)" id="svg_14">
   <svg x="790.83776" id="svg_11" y="-93.75082" xmlns="http://www.w3.org/2000/svg" viewBox="0 0 32 32" height="800" width="800" fill="#606468">
    <g stroke-width="0" id="svg_7"/>
    <g stroke-linejoin="round" stroke-linecap="round" id="svg_6"/>
    <g id="svg_5">
     <path id="svg_12" d="m16,25.093c-8.839,0 -16,-4.796 -16,-10.719c0,-5.916 7.161,-10.713 16,-10.713s16,4.797 16,10.713c0,5.923 -7.161,10.719 -16,10.719zm2.448,-17.244c-6.713,0 -12.161,3.281 -12.161,7.328s5.448,7.328 12.161,7.328c6.713,0 11.677,-2.245 11.677,-7.328c0,-5.084 -4.959,-7.328 -11.677,-7.328zm5.916,12.411c0.527,0.156 1.037,0.349 1.537,0.579c0.287,0.14 0.547,0.328 0.776,0.552c0.14,0.151 0.26,0.323 0.353,0.511l3.819,6.437l-6.172,0l-2.885,-5.417c-0.265,-0.473 -0.584,-0.911 -0.953,-1.307c-0.188,-0.208 -0.453,-0.333 -0.735,-0.333l-1.464,0l0,7.052l-5.457,0.005l0,-18.021l10.963,0c0,0 4.991,0.089 4.991,4.839c0.009,2.693 -2.079,4.932 -4.772,5.104l-0.001,-0.001zm-2.369,-6.036l-3.307,0l0,3.063l3.307,0c0.86,0.011 1.557,-0.699 1.532,-1.557c0.047,-0.865 -0.672,-1.568 -1.532,-1.505l0,-0.001z"/>
    </g>
   </svg>
  </g>
 </g>
</svg>