<svg width="800" height="800" xmlns="http://www.w3.org/2000/svg">

 <g>
  <title>Layer 1</title>
  <g id="svg_4">
   <svg id="svg_10" y="0" xmlns="http://www.w3.org/2000/svg" fill="none" viewBox="0 0 24 24" height="800" width="800">
    <g stroke-width="0" id="svg_3"/>
    <g stroke-linejoin="round" stroke-linecap="round" id="svg_2"/>
    <g id="svg_1">
     <path id="svg_11" stroke-linejoin="round" stroke-width="2" stroke="#606468" d="m17.8284,6.82843c0.5781,0.57806 0.8671,0.86709 1.0194,1.23463c0.1522,0.36754 0.1522,0.77629 0.1522,1.59379l0,7.34315c0,1.8856 0,2.8284 -0.5858,3.4142c-0.5858,0.5858 -1.5286,0.5858 -3.4142,0.5858l-6,0c-1.88562,0 -2.82843,0 -3.41421,-0.5858c-0.58579,-0.5858 -0.58579,-1.5286 -0.58579,-3.4142l0,-10c0,-1.88562 0,-2.82843 0.58579,-3.41421c0.58578,-0.58579 1.52859,-0.58579 3.41421,-0.58579l3.3431,0c0.8175,0 1.2263,0 1.5938,0.15224c0.3676,0.15224 0.6566,0.44127 1.2347,1.01933l2.6568,2.65686z"/>
    </g>
   </svg>
  </g>
  <g transform="matrix(0.374135, 0, 0, 0.397136, -21.7555, 112.823)" id="svg_17">
   <svg x="705.90054" id="svg_12" y="381.03452" xml:space="preserve" enable-background="new 0 0 512 512" viewBox="0 0 512 512" height="800" width="800" xmlns:xlink="http://www.w3.org/1999/xlink" xmlns="http://www.w3.org/2000/svg" version="1.1" fill="#606468">
    <g stroke-width="0" id="svg_8"/>
    <g stroke-linejoin="round" stroke-linecap="round" id="svg_7"/>
    <g id="svg_5">
     <g id="svg_6">
      <path id="svg_13" d="m365.281,386.936l108.635,96.416l-213.754,-16.794c41.878,-25.3 76.426,-55.513 102.294,-79.567c0.426,0.083 0.879,0.129 1.332,0.129c0.495,-0.001 0.994,-0.06 1.493,-0.184zm120.237,57.614l20.008,-262.045c-9.898,25.284 -25.557,54.73 -45.857,86.172l25.849,175.873zm-112.971,-63.567l108.384,96.196l-28.936,-196.865c-23.853,35.506 -52.495,71.808 -79.448,100.669zm-126.596,93.793c-23.345,12.934 -47.373,23.235 -71.707,30.757l249.786,-16.798l-177.998,-13.982l-0.081,0.023zm-208.604,-126.225l65.429,152.89l53.851,-178.4l-119.28,25.51zm135.167,-34.563l182.182,58.517l-46.488,-184.204l-135.694,125.687zm145.889,-143.982l169.829,-11.368l-132.781,-108.448l-37.048,119.816zm96.599,-167.087l-111.442,-0.504l49.543,34.69l61.899,-34.186zm-410.217,280.839l-3.667,108.653l26.729,-48.75l-23.062,-59.903zm60.883,43.65c21.184,1.351 42.583,-3.343 64.17,-12.792c14.541,-6.891 29.626,-15.612 44.767,-25.863c21.715,-15.342 43.6,-34.532 65.645,-56.38c79.292,-78.583 111.895,-166.467 77.246,-201.459c-8.268,-8.344 -20.104,-12.609 -35.188,-12.675c-45.66,-0.197 -113.905,34.175 -172.069,91.842c-55.586,55.098 -91.631,120.496 -91.824,166.618c-0.068,16.399 4.469,29.319 13.483,38.407c8.017,8.099 19.408,11.381 33.77,12.302zm165.435,144.772c2.486,-1.286 4.963,-2.586 7.408,-3.909l-73.322,-141.472l-55.183,182.786c0.462,-0.06 4.189,-0.508 4.189,-0.508c4.816,-0.613 9.573,-1.318 14.271,-2.115c30.318,-5.169 60.315,-14.633 89.154,-28.139c4.564,-2.134 9.051,-4.353 13.483,-6.643zm149.74,-116.689l1.739,-1.996c1.214,-1.424 2.437,-2.875 3.654,-4.331c0,0 3.768,-4.486 5.232,-6.268c2.464,-2.98 4.913,-6.021 7.371,-9.079c2.258,-2.82 4.51,-5.649 6.758,-8.529c2.358,-3.021 4.716,-6.048 7.056,-9.134c5.297,-6.973 10.653,-14.284 16.377,-22.36c6.057,-8.544 11.908,-17.142 17.416,-25.584l-9.931,-6.073c-26.371,-16.125 -79.37,-48.606 -114.203,-70.003l45.074,178.595c4.199,-4.611 8.632,-9.625 13.457,-15.238zm127.392,-287.541l-140.23,-19.689l133.688,109.327c4.697,-15.496 7.756,-30.524 9.088,-44.699c0.192,-1.987 0.315,-3.985 0.435,-5.998c0.114,-1.852 0.179,-3.711 0.229,-5.574c0.321,-12.073 -0.76,-23.288 -3.21,-33.367zm-53.91,191.792c0.344,-0.453 0.729,-0.962 1.149,-1.573c2.669,-3.779 6.465,-9.962 10.686,-17.409c11.748,-20.717 26.239,-50.254 32.282,-71.993l-174.412,11.636c36.379,22.356 89.521,54.924 115.942,71.084l14.087,8.598c0.084,-0.105 0.17,-0.22 0.266,-0.343zm-209.061,206.386l0.545,-0.307c38.046,-21.084 72.05,-47.021 110.142,-84.087l-185.419,-59.807l74.732,144.201zm-244.764,-54.186c0.819,24.146 5.943,44.081 15.241,59.391l8.658,-103.113l-23.899,43.722zm33.784,-50.535l-9.99,119c14.234,18.62 33.252,26.935 61.528,26.935c2.848,0 5.806,-0.078 8.978,-0.233l-4.995,-12.412c-10.809,-26.852 -41.653,-103.449 -55.521,-133.29zm471.86,-300.803c-2.056,-6.289 -4.68,-12.096 -7.811,-17.306c-12.632,-21.015 -34.452,-34.461 -64.871,-39.976l-67.961,37.531l140.643,19.751z" display="inline"/>
     </g>
    </g>
   </svg>
  </g>
 </g>
</svg>