<svg width="800" height="800" xmlns="http://www.w3.org/2000/svg">

 <g>
  <title>Layer 1</title>
  <g id="svg_4">
   <svg id="svg_9" y="0" xmlns="http://www.w3.org/2000/svg" fill="none" viewBox="0 0 24 24" height="800" width="800">
    <g stroke-width="0" id="svg_3"/>
    <g stroke-linejoin="round" stroke-linecap="round" id="svg_2"/>
    <g id="svg_1">
     <path id="svg_10" stroke-linejoin="round" stroke-width="2" stroke="#606468" d="m17.8284,6.82843c0.5781,0.57806 0.8671,0.86709 1.0194,1.23463c0.1522,0.36754 0.1522,0.77629 0.1522,1.59379l0,7.34315c0,1.8856 0,2.8284 -0.5858,3.4142c-0.5858,0.5858 -1.5286,0.5858 -3.4142,0.5858l-6,0c-1.88562,0 -2.82843,0 -3.41421,-0.5858c-0.58579,-0.5858 -0.58579,-1.5286 -0.58579,-3.4142l0,-10c0,-1.88562 0,-2.82843 0.58579,-3.41421c0.58578,-0.58579 1.52859,-0.58579 3.41421,-0.58579l3.3431,0c0.8175,0 1.2263,0 1.5938,0.15224c0.3676,0.15224 0.6566,0.44127 1.2347,1.01933l2.6568,2.65686z"/>
    </g>
   </svg>
  </g>
  <g transform="matrix(0.850001, 0, 0, 0.830002, 29.3996, 48.7893)" id="svg_14">
   <svg x="33.64701" id="svg_11" y="61.69885" xmlns="http://www.w3.org/2000/svg" fill="none" viewBox="0 0 64 64" height="800" width="800">
    <g stroke-width="0" id="svg_7"/>
    <g stroke-linejoin="round" stroke-linecap="round" id="svg_6"/>
    <g id="svg_5">
     <path id="svg_12" fill="#606468" d="m47.781,31.608l-1.343,-0.832a18.57,18.57 0 0 0 -0.038,-0.391l1.154,-1.077a0.46,0.46 0 0 0 -0.153,-0.771l-1.476,-0.552a16.798,16.798 0 0 0 -0.115,-0.381l0.92,-1.279a0.462,0.462 0 0 0 -0.3,-0.727l-1.557,-0.253c-0.06,-0.118 -0.123,-0.234 -0.187,-0.35l0.654,-1.435a0.46,0.46 0 0 0 -0.437,-0.654l-1.579,0.055a12.482,12.482 0 0 0 -0.25,-0.302l0.363,-1.539a0.461,0.461 0 0 0 -0.556,-0.556l-1.538,0.362c-0.1,-0.084 -0.2,-0.167 -0.303,-0.25l0.055,-1.578a0.46,0.46 0 0 0 -0.654,-0.437l-1.435,0.654a16.712,16.712 0 0 0 -0.35,-0.188l-0.253,-1.556a0.462,0.462 0 0 0 -0.726,-0.301l-1.28,0.92a14.31,14.31 0 0 0 -0.38,-0.115l-0.552,-1.476a0.461,0.461 0 0 0 -0.771,-0.154l-1.077,1.156c-0.13,-0.014 -0.26,-0.028 -0.391,-0.038l-0.832,-1.344a0.462,0.462 0 0 0 -0.786,0l-0.832,1.344c-0.13,0.01 -0.261,0.024 -0.391,0.038l-1.077,-1.155a0.464,0.464 0 0 0 -0.771,0.153l-0.552,1.476c-0.128,0.037 -0.255,0.076 -0.38,0.116l-1.28,-0.921a0.46,0.46 0 0 0 -0.727,0.3l-0.254,1.557c-0.117,0.061 -0.233,0.124 -0.35,0.188l-1.434,-0.654a0.46,0.46 0 0 0 -0.654,0.436l0.055,1.58c-0.102,0.082 -0.203,0.165 -0.303,0.25l-1.538,-0.363a0.464,0.464 0 0 0 -0.557,0.556l0.363,1.539c-0.085,0.1 -0.168,0.2 -0.25,0.302l-1.579,-0.055a0.462,0.462 0 0 0 -0.437,0.654l0.654,1.436c-0.063,0.115 -0.126,0.231 -0.187,0.35l-1.556,0.252a0.462,0.462 0 0 0 -0.301,0.727l0.92,1.279c-0.04,0.126 -0.078,0.253 -0.115,0.38l-1.476,0.553a0.462,0.462 0 0 0 -0.153,0.771l1.155,1.077c-0.015,0.13 -0.028,0.26 -0.039,0.391l-1.343,0.832a0.462,0.462 0 0 0 0,0.786l1.343,0.831c0.011,0.131 0.024,0.262 0.039,0.392l-1.155,1.077a0.462,0.462 0 0 0 0.153,0.771l1.476,0.552c0.037,0.128 0.076,0.255 0.116,0.38l-0.921,1.28a0.462,0.462 0 0 0 0.301,0.726l1.556,0.253c0.061,0.118 0.123,0.235 0.188,0.35l-0.655,1.435a0.462,0.462 0 0 0 0.437,0.654l1.579,-0.055c0.082,0.103 0.165,0.203 0.25,0.303l-0.363,1.539a0.46,0.46 0 0 0 0.557,0.555l1.538,-0.362c0.1,0.085 0.201,0.167 0.303,0.249l-0.055,1.58a0.461,0.461 0 0 0 0.654,0.436l1.435,-0.654c0.115,0.064 0.232,0.127 0.35,0.188l0.253,1.555a0.461,0.461 0 0 0 0.727,0.302l1.279,-0.922c0.126,0.04 0.253,0.08 0.38,0.116l0.552,1.476a0.46,0.46 0 0 0 0.771,0.153l1.078,-1.155c0.13,0.015 0.26,0.028 0.391,0.04l0.832,1.343a0.463,0.463 0 0 0 0.786,0l0.831,-1.344c0.131,-0.011 0.262,-0.024 0.392,-0.039l1.077,1.155a0.46,0.46 0 0 0 0.77,-0.153l0.553,-1.476c0.127,-0.036 0.254,-0.076 0.38,-0.116l1.28,0.922a0.463,0.463 0 0 0 0.726,-0.302l0.254,-1.556c0.117,-0.06 0.233,-0.124 0.349,-0.187l1.435,0.654a0.461,0.461 0 0 0 0.654,-0.437l-0.055,-1.58c0.102,-0.08 0.203,-0.163 0.303,-0.248l1.538,0.362a0.46,0.46 0 0 0 0.556,-0.555l-0.362,-1.539c0.084,-0.1 0.167,-0.2 0.249,-0.303l1.58,0.055a0.46,0.46 0 0 0 0.436,-0.654l-0.654,-1.435c0.064,-0.115 0.126,-0.232 0.187,-0.35l1.556,-0.253a0.46,0.46 0 0 0 0.301,-0.726l-0.92,-1.28a17.5,17.5 0 0 0 0.115,-0.38l1.476,-0.552a0.46,0.46 0 0 0 0.153,-0.771l-1.155,-1.077c0.014,-0.13 0.027,-0.261 0.039,-0.392l1.343,-0.831a0.462,0.462 0 0 0 0,-0.786zm-8.991,11.144a0.952,0.952 0 0 1 0.399,-1.861a0.952,0.952 0 0 1 -0.4,1.861l0.001,0zm-0.457,-3.087a0.866,0.866 0 0 0 -1.028,0.666l-0.477,2.226a11.649,11.649 0 0 1 -4.828,1.04c-1.76,0 -3.43,-0.39 -4.929,-1.087l-0.477,-2.225a0.866,0.866 0 0 0 -1.028,-0.667l-1.965,0.422a11.68,11.68 0 0 1 -1.016,-1.197l9.561,0c0.108,0 0.18,-0.02 0.18,-0.118l0,-3.382c0,-0.099 -0.072,-0.118 -0.18,-0.118l-2.796,0l0,-2.145l3.024,0c0.276,0 1.476,0.079 1.86,1.613c0.12,0.471 0.384,2.006 0.564,2.497c0.18,0.551 0.912,1.652 1.692,1.652l4.764,0a0.977,0.977 0 0 0 0.173,-0.017c-0.33,0.449 -0.693,0.874 -1.083,1.27l-2.01,-0.431l-0.001,0.001zm-13.223,3.04a0.952,0.952 0 0 1 -0.399,-1.861a0.95,0.95 0 0 1 0.398,1.862l0.001,-0.001zm-3.627,-14.707a0.95,0.95 0 1 1 -1.737,0.771a0.95,0.95 0 1 1 1.737,-0.771zm-1.115,2.643l2.047,-0.91a0.868,0.868 0 0 0 0.44,-1.145l-0.421,-0.953l1.658,0l0,7.474l-3.345,0a11.714,11.714 0 0 1 -0.38,-4.466l0.001,0zm8.983,-0.726l0,-2.203l3.948,0c0.204,0 1.44,0.236 1.44,1.16c0,0.767 -0.948,1.043 -1.728,1.043l-3.66,0zm14.349,1.983c0,0.292 -0.011,0.581 -0.033,0.868l-1.2,0c-0.12,0 -0.168,0.08 -0.168,0.197l0,0.551c0,1.298 -0.732,1.58 -1.373,1.652c-0.61,0.068 -1.288,-0.256 -1.371,-0.63c-0.36,-2.025 -0.96,-2.458 -1.908,-3.206c1.176,-0.746 2.4,-1.848 2.4,-3.323c0,-1.593 -1.092,-2.596 -1.836,-3.088c-1.044,-0.688 -2.2,-0.826 -2.512,-0.826l-12.414,0a11.684,11.684 0 0 1 6.545,-3.694l1.463,1.535c0.331,0.346 0.88,0.36 1.225,0.028l1.638,-1.566a11.71,11.71 0 0 1 8.009,5.704l-1.121,2.532a0.869,0.869 0 0 0 0.44,1.145l2.159,0.958c0.037,0.383 0.056,0.77 0.056,1.163l0.001,0zm-12.406,-12.805a0.95,0.95 0 0 1 1.344,0.031a0.952,0.952 0 0 1 -0.032,1.346a0.949,0.949 0 0 1 -1.343,-0.032a0.953,0.953 0 0 1 0.031,-1.345zm11.123,8.951a0.95,0.95 0 1 1 1.737,0.772a0.95,0.95 0 1 1 -1.737,-0.772z"/>
    </g>
   </svg>
  </g>
 </g>
</svg>