<svg width="800" height="800" xmlns="http://www.w3.org/2000/svg">

 <g>
  <title>Layer 1</title>
  <g id="svg_4">
   <svg id="svg_9" y="0" xmlns="http://www.w3.org/2000/svg" fill="none" viewBox="0 0 24 24" height="800" width="800">
    <g stroke-width="0" id="svg_3"/>
    <g stroke-linejoin="round" stroke-linecap="round" id="svg_2"/>
    <g id="svg_1">
     <path id="svg_10" stroke-linejoin="round" stroke-width="2" stroke="#606468" d="m17.8284,6.82843c0.5781,0.57806 0.8671,0.86709 1.0194,1.23463c0.1522,0.36754 0.1522,0.77629 0.1522,1.59379l0,7.34315c0,1.8856 0,2.8284 -0.5858,3.4142c-0.5858,0.5858 -1.5286,0.5858 -3.4142,0.5858l-6,0c-1.88562,0 -2.82843,0 -3.41421,-0.5858c-0.58579,-0.5858 -0.58579,-1.5286 -0.58579,-3.4142l0,-10c0,-1.88562 0,-2.82843 0.58579,-3.41421c0.58578,-0.58579 1.52859,-0.58579 3.41421,-0.58579l3.3431,0c0.8175,0 1.2263,0 1.5938,0.15224c0.3676,0.15224 0.6566,0.44127 1.2347,1.01933l2.6568,2.65686z"/>
    </g>
   </svg>
  </g>
  <g transform="matrix(0.470827, 0, 0, 0.439993, 54.2403, 530.607)" id="svg_8">
   <svg x="330.74289" id="svg_11" y="-624.01056" xmlns="http://www.w3.org/2000/svg" fill="none" viewBox="0 0 24 24" height="800" width="800">
    <g stroke-width="0" id="svg_7"/>
    <g stroke-linejoin="round" stroke-linecap="round" id="svg_6"/>
    <g id="svg_5">
     <path id="svg_12" stroke-width="2" stroke="#606468" d="m3,9.5l18,0m-18,5l18,0m-13,-10l0,15m-1.8,0l11.6,0c1.1201,0 1.6802,0 2.108,-0.218c0.3763,-0.1917 0.6823,-0.4977 0.874,-0.874c0.218,-0.4278 0.218,-0.9879 0.218,-2.108l0,-8.6c0,-1.1201 0,-1.68016 -0.218,-2.10798c-0.1917,-0.37633 -0.4977,-0.68229 -0.874,-0.87403c-0.4278,-0.21799 -0.9879,-0.21799 -2.108,-0.21799l-11.6,0c-1.1201,0 -1.68016,0 -2.10798,0.21799c-0.37633,0.19174 -0.68229,0.4977 -0.87403,0.87403c-0.21799,0.42782 -0.21799,0.98787 -0.21799,2.10798l0,8.6c0,1.1201 0,1.6802 0.21799,2.108c0.19174,0.3763 0.4977,0.6823 0.87403,0.874c0.42782,0.218 0.98787,0.218 2.10798,0.218z"/>
    </g>
   </svg>
  </g>
 </g>
</svg>