<svg width="800" height="800" xmlns="http://www.w3.org/2000/svg">

 <g>
  <title>Layer 1</title>
  <svg id="svg_9" y="0" xmlns="http://www.w3.org/2000/svg" fill="none" viewBox="0 0 24 24" height="800" width="800">
   <g stroke-width="0" id="svg_3"/>
   <g stroke-linejoin="round" stroke-linecap="round" id="svg_2"/>
   <g id="svg_1">
    <path id="svg_10" stroke-linejoin="round" stroke-width="2" stroke="#606468" d="m17.8284,6.82843c0.5781,0.57806 0.8671,0.86709 1.0194,1.23463c0.1522,0.36754 0.1522,0.77629 0.1522,1.59379l0,7.34315c0,1.8856 0,2.8284 -0.5858,3.4142c-0.5858,0.5858 -1.5286,0.5858 -3.4142,0.5858l-6,0c-1.88562,0 -2.82843,0 -3.41421,-0.5858c-0.58579,-0.5858 -0.58579,-1.5286 -0.58579,-3.4142l0,-10c0,-1.88562 0,-2.82843 0.58579,-3.41421c0.58578,-0.58579 1.52859,-0.58579 3.41421,-0.58579l3.3431,0c0.8175,0 1.2263,0 1.5938,0.15224c0.3676,0.15224 0.6566,0.44127 1.2347,1.01933l2.6568,2.65686z"/>
   </g>
  </svg>
  <g transform="matrix(0.442927, 0, 0, 0.468746, -48.7471, 173.221)" id="svg_17">
   <svg x="591.2848" id="svg_11" y="132.95227" xmlns="http://www.w3.org/2000/svg" viewBox="0 -1.5 27 27" height="800" width="800" fill="#606468">
    <g stroke-width="0" id="svg_7"/>
    <g stroke-linejoin="round" stroke-linecap="round" id="svg_6"/>
    <g id="svg_5">
     <path id="svg_12" d="m24.698,16.885c0.063,-0.126 0.063,-0.252 0.126,-0.377c1.512,-5.923 -2.08,-12.853 -8.254,-16.507c1.952,2.446 3.132,5.582 3.132,8.995c0,1.032 -0.108,2.038 -0.313,3.009l0.017,-0.095c-0.087,0.39 -0.195,0.728 -0.33,1.052l0.015,-0.041c-0.2,-0.111 -0.365,-0.215 -0.524,-0.327l0.019,0.012c-4.757,-3.149 -8.901,-6.575 -12.651,-10.389l-0.011,-0.011c2.438,3.602 4.965,6.75 7.722,9.678l-0.036,-0.039c-4.121,-2.64 -7.702,-5.378 -11.039,-8.381l0.076,0.067c0.474,0.784 0.972,1.463 1.524,2.093l-0.014,-0.017c3.3,4.423 6.99,8.272 11.099,11.626l0.117,0.092c-3.213,1.955 -7.687,2.08 -12.224,0c-1.203,-0.57 -2.236,-1.2 -3.195,-1.923l0.046,0.033c2.022,3.147 4.88,5.601 8.261,7.079l0.12,0.047c1.693,0.839 3.687,1.331 5.796,1.331s4.103,-0.491 5.874,-1.365l-0.078,0.035l0.064,0c0.146,-0.065 0.271,-0.15 0.378,-0.252l-0.001,0c1.512,-0.756 4.474,-1.573 6.112,1.573c0.44,0.882 1.259,-3.213 -1.827,-6.994l-0.001,-0.004z"/>
    </g>
   </svg>
  </g>
 </g>
</svg>